HIERARCHY
ROOT Hips
{
	OFFSET 0.000000 0.000000 0.000000 
	CHANNELS 6 Xposition Yposition Zposition Yrotation Zrotation Xrotation 
	JOINT Lumbar
	{
		OFFSET 0.000000 0.000000 0.000000 
		CHANNELS 3 Zrotation Xrotation Yrotation
		JOINT Neck
		{
			OFFSET 0.000000 0.445665 0.000000 
			CHANNELS 3 Zrotation Xrotation Yrotation
			End Site
			{
				OFFSET 0.000000 0.227535 0.000000 
			}
		}
		JOINT RightShoulder
		{
			OFFSET 0.019635 0.377685 0.194865 
			CHANNELS 3 Zrotation Xrotation Yrotation
			JOINT RightElbow
			{
				OFFSET 0.000000 -0.243375 0.000000 
				CHANNELS 2 Zrotation Yrotation
				JOINT RightWrist
				{
					OFFSET 0.000000 -0.264825 0.000000 
					CHANNELS 2 Zrotation Xrotation
					End Site
					{
						OFFSET 0.006600 -0.176220 0.000990 
					}
				}
			}
		}
		JOINT LeftShoulder
		{
			OFFSET 0.019635 0.377685 -0.194865 
			CHANNELS 3 Zrotation Xrotation Yrotation
			JOINT LeftElbow
			{
				OFFSET 0.000000 -0.243375 0.000000 
				CHANNELS 2 Zrotation Yrotation
				JOINT LeftWrist
				{
					OFFSET 0.000000 -0.264825 0.000000 
					CHANNELS 2 Zrotation Xrotation
					End Site
					{
						OFFSET 0.006600 -0.176220 -0.000990 
					}
				}
			}
		}
	}
	JOINT RightHip
	{
		OFFSET 0.052140 -0.069960 0.075570 
		CHANNELS 3 Zrotation Xrotation Yrotation
		JOINT RightKnee
		{
			OFFSET 0.000000 -0.402270 0.000000 
			CHANNELS 1 Zrotation
			JOINT RightAnkle
			{
				OFFSET 0.000000 -0.404085 0.000000 
				CHANNELS 3 Zrotation Xrotation Yrotation
				End Site
				{
					OFFSET 0.204105 -0.089430 0.008415 
				}
			}
		}
	}
	JOINT LeftHip
	{
		OFFSET 0.052140 -0.069960 -0.075570 
		CHANNELS 3 Zrotation Xrotation Yrotation
		JOINT LeftKnee
		{
			OFFSET 0.000000 -0.402270 0.000000 
			CHANNELS 1 Zrotation
			JOINT LeftAnkle
			{
				OFFSET 0.000000 -0.404085 0.000000 
				CHANNELS 3 Zrotation Xrotation Yrotation
				End Site
				{
					OFFSET 0.204105 -0.089430 -0.008415 
				}
			}
		}
	}
}
MOTION
Frames: 17
Frame Time: 0.02
0.09956 0.9932 -0.24619 202.5503 0 -4.43732 8.96893 8.8488 1.35695 -38.06253 6.75245 11.3593 89.85874 6.1143 61.88491 80.37736 97.52763 9.84154 1.84138 98.23594 42.19814 25.91386 22.0788 -48.92243 -18.31538 -3.17789 -1.41012 9.13907 6.36745 -4.49419 -2.7895 -4.03076 -14.2688 -3.052 1.81795 -11.91277 -9.16194 6.54019 6.75505 10.48187
0.10004 0.99317 -0.246 202.33848 0 -4.45942 8.95475 8.85887 1.05973 -37.55388 6.74248 11.09566 87.628 5.22254 61.81086 81.1265 97.3373 9.46351 1.95191 97.27783 42.73833 25.87209 22.22353 -48.38213 -18.46643 -3.22312 -1.34962 9.09254 5.52931 -4.53379 -2.72583 -3.99659 -13.20197 -3.09491 1.81831 -11.67059 -9.07736 6.54384 6.74927 10.46008
0.10046 0.99314 -0.24586 202.07848 0 -4.48551 8.92524 8.85955 0.78257 -36.87659 6.69034 10.71052 84.82208 4.25839 61.80823 81.95189 96.58131 8.27475 2.24854 96.23782 43.40409 25.62692 22.41638 -47.62034 -18.68079 -3.27651 -1.28479 9.02487 4.02658 -4.57698 -2.60658 -3.9334 -11.41844 -3.15481 1.82824 -11.37302 -8.9739 6.54932 6.74153 10.42718
0.10091 0.99311 -0.24571 201.83766 0 -4.50995 8.89997 8.86228 0.50064 -36.25466 6.65207 10.37063 82.26416 3.30439 61.76191 82.70981 96.01021 7.44868 2.43464 95.222 44.02384 25.45958 22.59021 -46.96147 -18.86727 -3.32744 -1.22245 8.96939 2.88789 -4.61726 -2.51833 -3.8854 -10.01963 -3.20615 1.83355 -11.09965 -8.88112 6.55488 6.73558 10.40142
0.10136 0.99309 -0.24554 201.61055 0 -4.53341 8.88572 8.87408 0.1982 -35.71301 6.63475 10.06766 79.7423 2.43749 61.76861 83.61727 95.73108 6.64188 2.70179 94.25674 44.59964 25.3462 22.75435 -46.28874 -19.05098 -3.37428 -1.15789 8.90303 1.49329 -4.66304 -2.40604 -3.82948 -8.37954 -3.2609 1.83992 -10.83211 -8.779 6.55623 6.72556 10.36663
0.10178 0.99305 -0.24542 201.34176 0 -4.56003 8.84481 8.86483 -0.05556 -34.96893 6.56289 9.66025 77.01669 1.37831 61.67213 84.2202 94.72706 5.60872 2.85537 93.17095 45.29738 25.07488 22.94815 -45.59502 -19.25634 -3.43061 -1.09698 8.85452 0.47581 -4.69801 -2.33102 -3.7831 -7.07226 -3.31277 1.84643 -10.53765 -8.6919 6.567 6.72376 10.34794
0.10216 0.99298 -0.24538 200.97925 0 -4.59358 8.73695 8.80013 -0.1845 -33.69315 6.3684 9.00267 73.86893 -0.23037 61.36519 84.04997 91.70145 4.09265 2.64808 91.7409 46.28109 24.42008 23.22489 -44.88468 -19.4912 -3.51742 -1.04656 8.85754 0.60654 -4.70424 -2.36624 -3.76842 -6.81194 -3.35087 1.8502 -10.19404 -8.6526 6.60227 6.74381 10.37852
0.10252 0.99289 -0.24539 200.57429 0 -4.63035 8.60226 8.71455 -0.26421 -32.22367 6.11776 8.24378 70.53967 -2.02277 60.93436 83.55476 87.99457 2.38606 2.32413 90.19824 47.38604 23.61434 23.52703 -44.16406 -19.74819 -3.61216 -1.00002 8.87962 1.14556 -4.69914 -2.44166 -3.76439 -6.91522 -3.38578 1.85389 -9.82292 -8.62882 6.64718 6.77243 10.42541
0.10288 0.99281 -0.24538 200.18248 0 -4.66624 8.47822 8.63829 -0.36286 -30.85272 5.88148 7.52609 67.29565 -3.70611 60.50151 83.15039 84.70389 0.80506 2.05917 88.72836 48.44825 22.87644 23.80926 -43.45658 -20.00433 -3.69921 -0.95221 8.89503 1.53664 -4.69786 -2.5031 -3.7568 -6.88554 -3.42324 1.85817 -9.45676 -8.59691 6.68838 6.79811 10.46346
0.10324 0.99273 -0.24536 199.81564 0 -4.69985 8.36061 8.56236 -0.47451 -29.42974 5.69016 6.82302 64.01653 -5.49887 60.3209 82.98596 80.94585 -0.96403 1.7762 87.16544 49.46371 22.13288 24.12946 -42.70409 -20.22354 -3.80423 -0.90244 8.90185 1.75861 -4.70211 -2.54574 -3.74362 -6.70809 -3.45665 1.86055 -9.12079 -8.56888 6.72681 6.8199 10.50694
0.10361 0.99264 -0.24537 199.38647 0 -4.73886 8.22287 8.48099 -0.54871 -28.07342 5.39322 6.06889 60.77879 -7.10782 59.58011 82.24707 78.00389 -2.38216 1.49914 85.76931 50.60249 21.36994 24.37478 -42.04766 -20.52449 -3.87308 -0.85738 8.93067 2.42249 -4.69234 -2.63625 -3.744 -6.91737 -3.49753 1.86661 -8.71579 -8.53669 6.77328 6.85161 10.54342
0.10396 0.99252 -0.24546 198.80281 0 -4.79242 8.04113 8.38905 -0.52242 -26.9326 4.81219 5.18362 57.67157 -8.15191 57.35924 79.97228 77.51073 -2.72747 1.2812 84.87152 52.06061 20.57547 24.4178 -41.64426 -21.04048 -3.84464 -0.82741 9.02174 4.35153 -4.64457 -2.86313 -3.78825 -8.2573 -3.55963 1.88406 -8.12987 -8.4893 6.83949 6.91052 10.55399
0.10431 0.99239 -0.24557 198.15672 0 -4.8512 7.83927 8.29255 -0.46193 -25.86965 4.12851 4.254 54.62102 -9.00701 54.57136 77.13695 77.86011 -2.71911 1.07011 84.14276 53.63556 19.77123 24.38279 -41.34172 -21.63763 -3.77888 -0.80155 9.1334 6.69129 -4.5834 -3.13482 -3.84453 -9.95291 -3.62938 1.90496 -7.47507 -8.43717 6.91345 6.97876 10.55742
0.10467 0.99226 -0.24568 197.53475 0 -4.90726 7.64332 8.19857 -0.4232 -24.78207 3.49568 3.35492 51.56527 -9.95583 52.01927 74.5753 77.80752 -2.90659 0.8452 83.33187 55.15189 18.98146 24.37571 -41.00387 -22.20201 -3.7269 -0.77174 9.23154 8.74659 -4.52978 -3.37658 -3.88917 -11.38496 -3.69558 1.92346 -6.85023 -8.38737 6.98396 7.04148 10.56597
0.10501 0.99214 -0.24578 196.92936 0 -4.96487 7.4598 8.10184 -0.35654 -23.64118 2.84181 2.40784 48.4138 -10.87634 49.5568 71.91697 77.81032 -2.95493 0.65997 82.54439 56.6994 18.14112 24.39956 -40.62129 -22.75391 -3.68764 -0.75059 9.34732 11.21307 -4.46985 -3.65855 -3.95903 -13.24395 -3.76171 1.94549 -6.23037 -8.33773 7.05465 7.10993 10.56747
0.10539 0.99201 -0.2459 196.27497 0 -5.02048 7.24635 8.01019 -0.3405 -22.63365 2.20977 1.55221 45.48041 -11.81069 46.77278 69.33791 77.90802 -3.20407 0.39717 81.74353 58.20371 17.40932 24.34235 -40.3557 -23.34567 -3.61416 -0.7127 9.43174 12.93494 -4.41971 -3.8688 -3.98055 -14.31305 -3.83018 1.96097 -5.58376 -8.28594 7.12653 7.16851 10.58135
0.10591 0.99187 -0.24605 195.50286 0 -5.06917 6.95201 7.93251 -0.47385 -21.96599 1.64956 0.95516 43.11296 -12.80995 43.25821 67.05998 78.05461 -4.11219 -0.0976 80.91878 59.59571 16.95 24.061 -40.39176 -24.07047 -3.44478 -0.62436 9.41794 12.3275 -4.40276 -3.85311 -3.85292 -12.94152 -3.90033 1.9577 -4.88381 -8.23361 7.20093 7.1978 10.63477
